<?xml version="1.0" encoding="utf-8"?>
<!-- Generator: Adobe Illustrator 18.1.1, SVG Export Plug-In . SVG Version: 6.00 Build 0)  -->
<svg version="1.1" id="Layer_1" xmlns="http://www.w3.org/2000/svg" xmlns:xlink="http://www.w3.org/1999/xlink" x="0px" y="0px"
	 viewBox="0 0 800 104.1" enable-background="new 0 0 800 104.1" xml:space="preserve">
<rect y="0" fill="#FFFFFF" width="800" height="104.1"/>
<g>
	<path d="M9.3,9.3h29.1c29.7,0,49.5,17,49.5,42.7c0,25.7-19.8,42.7-49.5,42.7H9.3V9.3z M38.4,21.4H23.7v61.3h14.7
		c20.9,0,35-11.8,35-30.6C73.4,33.2,59.3,21.4,38.4,21.4z"/>
	<path d="M120.1,94.8h-14.5V9.3h39.3c18.7,0,32.1,11.5,32.1,27.7c0,11.5-8.3,21.6-19.9,24.6l21.4,33.1h-16.6L143,63.9h-22.9V94.8z
		 M120.1,21.3v31h23.2c11.1,0,19.3-6.4,19.3-15.2c0-10-8.1-15.8-19.3-15.8H120.1z"/>
	<path d="M188.5,52c0-26.8,19.1-45.7,46.4-45.7c27.5,0,46.6,18.9,46.6,45.7c0,26.9-19.1,45.7-46.6,45.7
		C207.5,97.8,188.5,78.9,188.5,52z M202.9,52c0,19.3,13.3,33.1,32,33.2c18.8,0,32.1-13.9,32.1-33.2S253.7,19,234.9,19
		C216.2,19,202.9,32.7,202.9,52z"/>
	<path d="M313.3,68.7v26.1h-14V9.3h33.1c20,0,34.4,12.4,34.4,29.7s-14.4,29.7-34.5,29.7H313.3z M313.3,21.3v35.3H330
		c13,0,22.4-7.4,22.3-17.6c0-10.4-9.3-17.7-22.3-17.7H313.3z"/>
	<path d="M383.4,9.3h29.1c29.7,0,49.5,17,49.5,42.7c0,25.7-19.8,42.7-49.5,42.7h-29.1V9.3z M412.5,21.4h-14.7v61.3h14.7
		c20.9,0,35-11.8,35-30.6C447.5,33.2,433.4,21.4,412.5,21.4z"/>
	<path d="M668,84.4l20.1-75H703l-23.5,85.4h-22.3l-16.6-69.1L624,94.8h-22.4L577.9,9.3h15l20.3,75l18.1-75h19.1L668,84.4z"/>
	<path d="M776.6,77.1V9.3h14.1v85.4h-17.6l-39.3-67.8v67.8h-14.2V9.3h17.6L776.6,77.1z"/>
	<path d="M567.4,52c0,26.8-19.1,45.7-46.4,45.7c-27.5,0-46.6-18.9-46.6-45.7c0-26.9,19.1-45.7,46.6-45.7
		C548.3,6.3,567.4,25.1,567.4,52z M552.9,52c0-19.3-13.3-33.1-32-33.2c-18.8,0-32.1,13.9-32.1,33.2s13.3,33.1,32.1,33.1
		C539.6,85.1,552.9,71.3,552.9,52z"/>
</g>
</svg>
